<?xml version="1.0" encoding="UTF-8" standalone="no" ?>
<!DOCTYPE svg PUBLIC "-//W3C//DTD SVG 1.1//EN" "http://www.w3.org/Graphics/SVG/1.1/DTD/svg11.dtd">
<svg xmlns="http://www.w3.org/2000/svg" xmlns:xlink="http://www.w3.org/1999/xlink" version="1.1" width="640" height="480" viewBox="0 0 640 480" xml:space="preserve">
<desc>Created with Fabric.js 3.6.6</desc>
<defs>
</defs>
<g transform="matrix(1 0 0 1 106.92 14.36)"  >
<g style=""   >
		<g transform="matrix(0.37 0 0 0.37 -92.63 -0.15)"  >
<path style="stroke: none; stroke-width: 1; stroke-dasharray: none; stroke-linecap: butt; stroke-dashoffset: 0; stroke-linejoin: miter; stroke-miterlimit: 4; fill: rgb(17,17,17); fill-rule: nonzero; opacity: 1;"  transform=" translate(-50, -50)" d="M 87.803 67.586 c -0.136 -0.136 -0.287 -0.25 -0.448 -0.353 c -0.135 -0.193 -0.281 -0.375 -0.448 -0.544 L 33.075 12.86 c -2.414 -2.415 -7.38 -1.233 -11.304 2.691 c -3.32 3.32 -4.667 7.382 -3.542 10.017 c -6.455 2.087 -6.717 3.122 -6.831 3.579 c -0.106 0.428 0.018 0.871 0.333 1.187 c 0.147 0.119 0.285 0.232 0.468 0.317 c 8.996 4.088 19.449 11.744 29.604 21.645 l -2.269 0.758 L 30.902 51.8 l 10.427 6.636 l -2.408 4.057 l 7.791 -2.262 l 0.724 -2.175 c 8.87 9.514 16.478 19.854 21.708 29.57 c 0.323 0.596 0.922 0.875 1.507 0.724 c 0.428 -0.107 1.512 -0.395 3.464 -6.515 c 2.076 1.527 6.303 -0.046 10.1 -3.841 C 88.204 74.004 89.746 69.53 87.803 67.586 z M 14.145 29.318 c 1.198 -0.585 3.354 -1.387 5.37 -2.029 l 20.533 20.534 C 31.149 39.601 22.137 33.151 14.145 29.318 z M 46.712 45.876 l -1.435 4.306 L 20.516 25.419 c -1.387 -1.386 -0.636 -5.106 2.691 -8.433 c 3.326 -3.327 7.046 -4.078 8.433 -2.691 l 23.327 23.326 L 46.712 45.876 z M 70.428 85.738 c -5.211 -9.45 -12.574 -19.427 -21.116 -28.651 L 72.48 80.256 C 71.84 82.343 71.017 84.583 70.428 85.738 z M 73.129 78.033 L 49.583 54.487 l 4.306 -1.435 l 8.255 -8.254 l 22.108 22.109 c -2.055 0.46 -4.536 1.946 -6.856 4.267 C 75.074 73.497 73.589 75.979 73.129 78.033 z M 82.778 76.559 c -2.883 2.885 -6.061 3.828 -7.759 3.128 c -0.266 -1.248 0.874 -4.139 3.812 -7.076 c 2.937 -2.938 5.826 -4.077 7.074 -3.811 C 86.607 70.497 85.663 73.675 82.778 76.559 z" stroke-linecap="round" />
</g>
		<g transform="matrix(0.46 0 0 0.46 19.72 0.09)"  >
<path style="stroke: none; stroke-width: 1; stroke-dasharray: none; stroke-linecap: butt; stroke-dashoffset: 0; stroke-linejoin: miter; stroke-miterlimit: 4; fill: rgb(17,17,17); fill-rule: nonzero; opacity: 1;"  transform=" translate(-188.15, -24.26)" d="M 16.68 8.359000000000002 l -0.058594 0.019531 c 4.375 0 8.125 1.5625 11.25 4.6875 s 4.6875 6.875 4.6875 11.25 c 0 3.2031 -0.87891 6.1133 -2.6367 8.75 l 2.6953 2.6758 l -4.4922 4.4727 l -2.6953 -2.6563 c -2.6758 1.7578 -5.5859 2.6367 -8.75 2.6367 c -4.375 0 -8.125 -1.5625 -11.23 -4.668 s -4.668 -6.8555 -4.668 -11.23 s 1.5625 -8.125 4.668 -11.25 s 6.8555 -4.6875 11.23 -4.6875 z M 16.602 28.75 l 4.4922 -4.4922 l 4.1406 4.1211 c 0.625 -1.2891 0.9375 -2.6563 0.9375 -4.1016 c 0 -2.6172 -0.9375 -4.8633 -2.8125 -6.7383 s -4.1211 -2.8125 -6.7383 -2.8125 c -2.6367 0 -4.8828 0.9375 -6.7383 2.8125 s -2.793 4.1211 -2.793 6.7383 c 0 2.6367 0.9375 4.8828 2.793 6.7383 s 4.1016 2.793 6.7383 2.793 c 1.4453 0 2.8125 -0.3125 4.1211 -0.9375 z M 53.94496875 8.515999999999998 l 6.3477 0 l 0 12.656 l 0 6.3281 c 0 3.4961 -1.2305 6.4844 -3.7109 8.9648 s -5.4688 3.7109 -8.9453 3.7109 c -3.4961 0 -6.4844 -1.2305 -8.9648 -3.7109 s -3.7109 -5.4688 -3.7109 -8.9648 l 0 -6.3281 l 0 -12.656 l 6.3477 0 l 0 12.656 l 0 5.6641 l 0 0.64453 c 0 1.7383 0.625 3.2227 1.8555 4.4531 s 2.7148 1.8555 4.4531 1.8555 c 1.7188 0 3.2031 -0.625 4.4531 -1.8555 s 1.875 -2.7148 1.875 -4.4531 l 0 -0.64453 l 0 -5.6641 l 0 -12.656 z M 63.3984375 8.515999999999998 l 18.887 0 l 0 6.2891 l -12.578 0 l 0 6.3086 l 9.4336 0 l 0 6.2891 l -9.4336 0 l 0 6.2891 l 12.578 0 l 0 6.3086 l -12.578 0 l -6.3086 0 l 0 -31.484 z M 94.57034375 33.7891 l -0.019531 -0.039063 c 1.7383 0 3.1836 -1.4453 3.1836 -3.1836 c 0 -1.3477 -0.52734 -2.207 -1.6016 -2.5977 c -2.2656 -0.83984 -1.7188 -0.64453 -3.9258 -1.4063 c -2.3242 -0.80078 -4.4727 -2.3828 -5.918 -4.3555 c -0.85938 -1.1719 -1.2891 -2.6172 -1.2891 -4.3555 c 0 -2.6172 0.9375 -4.8633 2.8125 -6.7383 s 4.1211 -2.8125 6.7578 -2.8125 c 2.6172 0 4.8633 0.9375 6.7383 2.8125 s 2.8125 4.1211 2.8125 6.7383 l -6.3477 0 c 0 -1.7188 -1.4453 -3.1641 -3.1641 -3.1641 c -1.7383 0 -3.1836 1.4453 -3.1836 3.1836 c 0 1.1328 0.44922 1.9922 1.3672 2.5781 c 1.875 1.2109 1.6602 0.97656 3.9063 1.6406 c 2.4219 0.70313 4.6094 2.207 6.1133 4.1406 c 0.87891 1.1328 1.3281 2.5977 1.3281 4.375 c 0 2.6367 -0.9375 4.8828 -2.8125 6.7578 s -4.1211 2.8125 -6.7383 2.8125 c -2.6367 0 -4.8828 -0.9375 -6.7578 -2.8125 s -2.8125 -4.1211 -2.8125 -6.7578 l 6.3672 0 c 0 1.7578 1.4258 3.1836 3.1836 3.1836 z M 114.51175 8.515999999999998 l 6.3086 0 l 7.8711 0 l 0 6.2891 l -7.8711 0 l 0 25.195 l -6.3086 0 l 0 -25.195 l -7.8711 0 l 0 -6.2891 l 7.8711 0 z M 131.42578125 40 l 0 -31.484 l 6.3086 0 l 0 31.484 l -6.3086 0 z M 155.976875 8.359000000000002 c 4.375 0 8.125 1.5625 11.25 4.6875 s 4.6875 6.875 4.6875 11.25 s -1.5625 8.125 -4.6875 11.23 s -6.875 4.668 -11.25 4.668 s -8.125 -1.5625 -11.23 -4.668 s -4.668 -6.8555 -4.668 -11.23 s 1.5625 -8.125 4.668 -11.25 s 6.8555 -4.6875 11.23 -4.6875 z M 155.976875 14.707 c -2.6367 0 -4.8828 0.9375 -6.7383 2.8125 s -2.793 4.1211 -2.793 6.7383 c 0 2.6367 0.9375 4.8828 2.793 6.7383 s 4.1016 2.793 6.7383 2.793 c 2.6172 0 4.8633 -0.9375 6.7383 -2.793 s 2.8125 -4.1016 2.8125 -6.7383 c 0 -2.6172 -0.9375 -4.8633 -2.8125 -6.7383 s -4.1211 -2.8125 -6.7383 -2.8125 z M 174.21875 7.93 l 18.887 17.988 l 0 -17.402 l 6.3086 0 l 0 32.07 l -18.887 -18.008 l 0 17.422 l -6.3086 0 l 0 -32.07 z M 224.9613125 29.59 l 5.5664 0 l -2.7734 -6.543 z M 222.3828125 35.1562 l -0.039063 -0.019531 c -0.70313 1.6016 -1.4258 3.1836 -2.1484 4.7852 l -6.7773 0 l 14.277 -31.992 l 14.316 31.992 l -6.7969 0 c -0.70313 -1.582 -1.4063 -3.1836 -2.1094 -4.7656 l -10.723 0 z M 244.4140625 7.93 l 18.887 17.988 l 0 -17.402 l 6.3086 0 l 0 32.07 l -18.887 -18.008 l 0 17.422 l -6.3086 0 l 0 -32.07 z M 282.089875 33.7891 l -0.019531 -0.039063 c 1.7383 0 3.1836 -1.4453 3.1836 -3.1836 c 0 -1.3477 -0.52734 -2.207 -1.6016 -2.5977 c -2.2656 -0.83984 -1.7188 -0.64453 -3.9258 -1.4063 c -2.3242 -0.80078 -4.4727 -2.3828 -5.918 -4.3555 c -0.85938 -1.1719 -1.2891 -2.6172 -1.2891 -4.3555 c 0 -2.6172 0.9375 -4.8633 2.8125 -6.7383 s 4.1211 -2.8125 6.7578 -2.8125 c 2.6172 0 4.8633 0.9375 6.7383 2.8125 s 2.8125 4.1211 2.8125 6.7383 l -6.3477 0 c 0 -1.7188 -1.4453 -3.1641 -3.1641 -3.1641 c -1.7383 0 -3.1836 1.4453 -3.1836 3.1836 c 0 1.1328 0.44922 1.9922 1.3672 2.5781 c 1.875 1.2109 1.6602 0.97656 3.9063 1.6406 c 2.4219 0.70313 4.6094 2.207 6.1133 4.1406 c 0.87891 1.1328 1.3281 2.5977 1.3281 4.375 c 0 2.6367 -0.9375 4.8828 -2.8125 6.7578 s -4.1211 2.8125 -6.7383 2.8125 c -2.6367 0 -4.8828 -0.9375 -6.7578 -2.8125 s -2.8125 -4.1211 -2.8125 -6.7578 l 6.3672 0 c 0 1.7578 1.4258 3.1836 3.1836 3.1836 z M 292.55859375 8.515999999999998 l 6.7773 0 l 5.8008 14.844 l 5.8008 -14.844 l 5.8008 14.844 l 5.7813 -14.844 l 6.7969 0 l -12.578 32.07 l -5.8594 -15.605 l -5.7422 15.605 z M 331.66015625 8.515999999999998 l 18.887 0 l 0 6.2891 l -12.578 0 l 0 6.3086 l 9.4336 0 l 0 6.2891 l -9.4336 0 l 0 6.2891 l 12.578 0 l 0 6.3086 l -12.578 0 l -6.3086 0 l 0 -31.484 z M 353.4765625 40 l -0.019531 -31.523 l 10.234 0 c 3.0273 0 6.0156 1.0547 8.1836 3.2227 s 3.0469 4.1992 3.0469 7.2266 l 0 0.97656 c 0 2.3438 -0.66406 4.0625 -1.9922 5.9375 s -2.4414 2.4219 -4.5117 3.2031 l 7.1094 10.957 l -7.6953 0 l -8.0469 -12.305 l 0 12.305 l -6.3086 0 z M 359.7656625 23.633 l 4.5117 0.019531 c 1.3086 0 1.9727 -0.33203 2.8906 -1.25 s 1.25 -1.9727 1.25 -3.2813 c 0 -1.2891 -0.33203 -2.1484 -1.25 -3.0859 s -2.5586 -1.2695 -3.8672 -1.2695 l -3.5352 0 l 0 8.8672 z" stroke-linecap="round" />
</g>
</g>
</g>
</svg>