<svg width="213.85" height="28.712533246655262" viewBox="0 0 370.00000000000006 49.67798597737876" class="css-1j8o68f"><defs id="SvgjsDefs1150"></defs><g id="SvgjsG1151" featurekey="symbolFeature-0" transform="matrix(0.6470095651502579,0,0,0.6470095651502579,-7.350591175174959,-7.51145009774844)" fill="#111111"><metadata xmlns="http://www.w3.org/2000/svg"><sfw xmlns="http://ns.adobe.com/SaveForWeb/1.0/"><slices><slicesourcebounds height="16383" width="16383" x="-8141" y="-8142" bottomleftorigin="true"></slicesourcebounds></slices></sfw></metadata><path xmlns="http://www.w3.org/2000/svg" d="M87.803,67.586c-0.136-0.136-0.287-0.25-0.448-0.353c-0.135-0.193-0.281-0.375-0.448-0.544L33.075,12.86  c-2.414-2.415-7.38-1.233-11.304,2.691c-3.32,3.32-4.667,7.382-3.542,10.017c-6.455,2.087-6.717,3.122-6.831,3.579  c-0.106,0.428,0.018,0.871,0.333,1.187c0.147,0.119,0.285,0.232,0.468,0.317c8.996,4.088,19.449,11.744,29.604,21.645l-2.269,0.758  L30.902,51.8l10.427,6.636l-2.408,4.057l7.791-2.262l0.724-2.175c8.87,9.514,16.478,19.854,21.708,29.57  c0.323,0.596,0.922,0.875,1.507,0.724c0.428-0.107,1.512-0.395,3.464-6.515c2.076,1.527,6.303-0.046,10.1-3.841  C88.204,74.004,89.746,69.53,87.803,67.586z M14.145,29.318c1.198-0.585,3.354-1.387,5.37-2.029l20.533,20.534  C31.149,39.601,22.137,33.151,14.145,29.318z M46.712,45.876l-1.435,4.306L20.516,25.419c-1.387-1.386-0.636-5.106,2.691-8.433  c3.326-3.327,7.046-4.078,8.433-2.691l23.327,23.326L46.712,45.876z M70.428,85.738c-5.211-9.45-12.574-19.427-21.116-28.651  L72.48,80.256C71.84,82.343,71.017,84.583,70.428,85.738z M73.129,78.033L49.583,54.487l4.306-1.435l8.255-8.254l22.108,22.109  c-2.055,0.46-4.536,1.946-6.856,4.267C75.074,73.497,73.589,75.979,73.129,78.033z M82.778,76.559  c-2.883,2.885-6.061,3.828-7.759,3.128c-0.266-1.248,0.874-4.139,3.812-7.076c2.937-2.938,5.826-4.077,7.074-3.811  C86.607,70.497,85.663,73.675,82.778,76.559z"></path></g><g id="SvgjsG1152" featurekey="nameFeature-0" transform="matrix(0.8005442502169852,0,0,0.8005442502169852,69.37396785501797,5.6517907356612715)" fill="#111111"><path d="M16.68 8.359000000000002 l-0.058594 0.019531 c4.375 0 8.125 1.5625 11.25 4.6875 s4.6875 6.875 4.6875 11.25 c0 3.2031 -0.87891 6.1133 -2.6367 8.75 l2.6953 2.6758 l-4.4922 4.4727 l-2.6953 -2.6563 c-2.6758 1.7578 -5.5859 2.6367 -8.75 2.6367 c-4.375 0 -8.125 -1.5625 -11.23 -4.668 s-4.668 -6.8555 -4.668 -11.23 s1.5625 -8.125 4.668 -11.25 s6.8555 -4.6875 11.23 -4.6875 z M16.602 28.75 l4.4922 -4.4922 l4.1406 4.1211 c0.625 -1.2891 0.9375 -2.6563 0.9375 -4.1016 c0 -2.6172 -0.9375 -4.8633 -2.8125 -6.7383 s-4.1211 -2.8125 -6.7383 -2.8125 c-2.6367 0 -4.8828 0.9375 -6.7383 2.8125 s-2.793 4.1211 -2.793 6.7383 c0 2.6367 0.9375 4.8828 2.793 6.7383 s4.1016 2.793 6.7383 2.793 c1.4453 0 2.8125 -0.3125 4.1211 -0.9375 z M53.94496875 8.515999999999998 l6.3477 0 l0 12.656 l0 6.3281 c0 3.4961 -1.2305 6.4844 -3.7109 8.9648 s-5.4688 3.7109 -8.9453 3.7109 c-3.4961 0 -6.4844 -1.2305 -8.9648 -3.7109 s-3.7109 -5.4688 -3.7109 -8.9648 l0 -6.3281 l0 -12.656 l6.3477 0 l0 12.656 l0 5.6641 l0 0.64453 c0 1.7383 0.625 3.2227 1.8555 4.4531 s2.7148 1.8555 4.4531 1.8555 c1.7188 0 3.2031 -0.625 4.4531 -1.8555 s1.875 -2.7148 1.875 -4.4531 l0 -0.64453 l0 -5.6641 l0 -12.656 z M63.3984375 8.515999999999998 l18.887 0 l0 6.2891 l-12.578 0 l0 6.3086 l9.4336 0 l0 6.2891 l-9.4336 0 l0 6.2891 l12.578 0 l0 6.3086 l-12.578 0 l-6.3086 0 l0 -31.484 z M94.57034375 33.7891 l-0.019531 -0.039063 c1.7383 0 3.1836 -1.4453 3.1836 -3.1836 c0 -1.3477 -0.52734 -2.207 -1.6016 -2.5977 c-2.2656 -0.83984 -1.7188 -0.64453 -3.9258 -1.4063 c-2.3242 -0.80078 -4.4727 -2.3828 -5.918 -4.3555 c-0.85938 -1.1719 -1.2891 -2.6172 -1.2891 -4.3555 c0 -2.6172 0.9375 -4.8633 2.8125 -6.7383 s4.1211 -2.8125 6.7578 -2.8125 c2.6172 0 4.8633 0.9375 6.7383 2.8125 s2.8125 4.1211 2.8125 6.7383 l-6.3477 0 c0 -1.7188 -1.4453 -3.1641 -3.1641 -3.1641 c-1.7383 0 -3.1836 1.4453 -3.1836 3.1836 c0 1.1328 0.44922 1.9922 1.3672 2.5781 c1.875 1.2109 1.6602 0.97656 3.9063 1.6406 c2.4219 0.70313 4.6094 2.207 6.1133 4.1406 c0.87891 1.1328 1.3281 2.5977 1.3281 4.375 c0 2.6367 -0.9375 4.8828 -2.8125 6.7578 s-4.1211 2.8125 -6.7383 2.8125 c-2.6367 0 -4.8828 -0.9375 -6.7578 -2.8125 s-2.8125 -4.1211 -2.8125 -6.7578 l6.3672 0 c0 1.7578 1.4258 3.1836 3.1836 3.1836 z M114.51175 8.515999999999998 l6.3086 0 l7.8711 0 l0 6.2891 l-7.8711 0 l0 25.195 l-6.3086 0 l0 -25.195 l-7.8711 0 l0 -6.2891 l7.8711 0 z M131.42578125 40 l0 -31.484 l6.3086 0 l0 31.484 l-6.3086 0 z M155.976875 8.359000000000002 c4.375 0 8.125 1.5625 11.25 4.6875 s4.6875 6.875 4.6875 11.25 s-1.5625 8.125 -4.6875 11.23 s-6.875 4.668 -11.25 4.668 s-8.125 -1.5625 -11.23 -4.668 s-4.668 -6.8555 -4.668 -11.23 s1.5625 -8.125 4.668 -11.25 s6.8555 -4.6875 11.23 -4.6875 z M155.976875 14.707 c-2.6367 0 -4.8828 0.9375 -6.7383 2.8125 s-2.793 4.1211 -2.793 6.7383 c0 2.6367 0.9375 4.8828 2.793 6.7383 s4.1016 2.793 6.7383 2.793 c2.6172 0 4.8633 -0.9375 6.7383 -2.793 s2.8125 -4.1016 2.8125 -6.7383 c0 -2.6172 -0.9375 -4.8633 -2.8125 -6.7383 s-4.1211 -2.8125 -6.7383 -2.8125 z M174.21875 7.93 l18.887 17.988 l0 -17.402 l6.3086 0 l0 32.07 l-18.887 -18.008 l0 17.422 l-6.3086 0 l0 -32.07 z M224.9613125 29.59 l5.5664 0 l-2.7734 -6.543 z M222.3828125 35.1562 l-0.039063 -0.019531 c-0.70313 1.6016 -1.4258 3.1836 -2.1484 4.7852 l-6.7773 0 l14.277 -31.992 l14.316 31.992 l-6.7969 0 c-0.70313 -1.582 -1.4063 -3.1836 -2.1094 -4.7656 l-10.723 0 z M244.4140625 7.93 l18.887 17.988 l0 -17.402 l6.3086 0 l0 32.07 l-18.887 -18.008 l0 17.422 l-6.3086 0 l0 -32.07 z M282.089875 33.7891 l-0.019531 -0.039063 c1.7383 0 3.1836 -1.4453 3.1836 -3.1836 c0 -1.3477 -0.52734 -2.207 -1.6016 -2.5977 c-2.2656 -0.83984 -1.7188 -0.64453 -3.9258 -1.4063 c-2.3242 -0.80078 -4.4727 -2.3828 -5.918 -4.3555 c-0.85938 -1.1719 -1.2891 -2.6172 -1.2891 -4.3555 c0 -2.6172 0.9375 -4.8633 2.8125 -6.7383 s4.1211 -2.8125 6.7578 -2.8125 c2.6172 0 4.8633 0.9375 6.7383 2.8125 s2.8125 4.1211 2.8125 6.7383 l-6.3477 0 c0 -1.7188 -1.4453 -3.1641 -3.1641 -3.1641 c-1.7383 0 -3.1836 1.4453 -3.1836 3.1836 c0 1.1328 0.44922 1.9922 1.3672 2.5781 c1.875 1.2109 1.6602 0.97656 3.9063 1.6406 c2.4219 0.70313 4.6094 2.207 6.1133 4.1406 c0.87891 1.1328 1.3281 2.5977 1.3281 4.375 c0 2.6367 -0.9375 4.8828 -2.8125 6.7578 s-4.1211 2.8125 -6.7383 2.8125 c-2.6367 0 -4.8828 -0.9375 -6.7578 -2.8125 s-2.8125 -4.1211 -2.8125 -6.7578 l6.3672 0 c0 1.7578 1.4258 3.1836 3.1836 3.1836 z M292.55859375 8.515999999999998 l6.7773 0 l5.8008 14.844 l5.8008 -14.844 l5.8008 14.844 l5.7813 -14.844 l6.7969 0 l-12.578 32.07 l-5.8594 -15.605 l-5.7422 15.605 z M331.66015625 8.515999999999998 l18.887 0 l0 6.2891 l-12.578 0 l0 6.3086 l9.4336 0 l0 6.2891 l-9.4336 0 l0 6.2891 l12.578 0 l0 6.3086 l-12.578 0 l-6.3086 0 l0 -31.484 z M353.4765625 40 l-0.019531 -31.523 l10.234 0 c3.0273 0 6.0156 1.0547 8.1836 3.2227 s3.0469 4.1992 3.0469 7.2266 l0 0.97656 c0 2.3438 -0.66406 4.0625 -1.9922 5.9375 s-2.4414 2.4219 -4.5117 3.2031 l7.1094 10.957 l-7.6953 0 l-8.0469 -12.305 l0 12.305 l-6.3086 0 z M359.7656625 23.633 l4.5117 0.019531 c1.3086 0 1.9727 -0.33203 2.8906 -1.25 s1.25 -1.9727 1.25 -3.2813 c0 -1.2891 -0.33203 -2.1484 -1.25 -3.0859 s-2.5586 -1.2695 -3.8672 -1.2695 l-3.5352 0 l0 8.8672 z"></path></g></svg>